<svg width="140" height="82" viewBox="0 0 140 82" fill="none" xmlns="http://www.w3.org/2000/svg">
<rect width="140" height="82" fill="#272D33"/>
<path d="M20.2134 11.9015V7.63586H21.4175C21.7886 7.63586 22.1167 7.7179 22.4019 7.88196C22.687 8.04602 22.9067 8.27942 23.061 8.58215C23.2173 8.88489 23.2964 9.23254 23.2983 9.62512V9.89758C23.2983 10.2999 23.2202 10.6525 23.064 10.9552C22.9097 11.2579 22.688 11.4904 22.3989 11.6525C22.1118 11.8146 21.7769 11.8976 21.394 11.9015H20.2134ZM20.7759 8.09875V11.4415H21.3677C21.8013 11.4415 22.1382 11.3068 22.3784 11.0372C22.6206 10.7677 22.7417 10.3839 22.7417 9.88586V9.63684C22.7417 9.15247 22.6274 8.77649 22.3989 8.50891C22.1724 8.23938 21.8501 8.10266 21.4321 8.09875H20.7759ZM26.562 9.92981H24.7134V11.4415H26.8608V11.9015H24.1509V7.63586H26.8315V8.09875H24.7134V9.46985H26.562V9.92981ZM28.9731 11.1544L30.1919 7.63586H30.8071L29.2251 11.9015H28.7271L27.1479 7.63586H27.7603L28.9731 11.1544ZM31.9849 11.9015H31.4224V7.63586H31.9849V11.9015ZM36.1538 10.548C36.1011 10.9991 35.9341 11.3478 35.6528 11.5939C35.3735 11.838 35.0015 11.9601 34.5366 11.9601C34.0327 11.9601 33.6284 11.7794 33.3237 11.4181C33.021 11.0568 32.8696 10.5734 32.8696 9.9679V9.55774C32.8696 9.16125 32.9399 8.81262 33.0806 8.51184C33.2231 8.21106 33.4243 7.98059 33.6841 7.82043C33.9438 7.65833 34.2446 7.57727 34.5864 7.57727C35.0396 7.57727 35.4028 7.70422 35.6763 7.95813C35.9497 8.21008 36.1089 8.55969 36.1538 9.00696H35.5884C35.5396 8.66711 35.4331 8.42102 35.269 8.26868C35.1069 8.11633 34.8794 8.04016 34.5864 8.04016C34.2271 8.04016 33.9448 8.17297 33.7397 8.4386C33.5366 8.70422 33.4351 9.08215 33.4351 9.57239V9.98547C33.4351 10.4484 33.5317 10.8165 33.7251 11.09C33.9185 11.3634 34.189 11.5001 34.5366 11.5001C34.8491 11.5001 35.0884 11.4298 35.2544 11.2892C35.4224 11.1466 35.5337 10.8995 35.5884 10.548H36.1538ZM39.3354 9.92981H37.4868V11.4415H39.6343V11.9015H36.9243V7.63586H39.605V8.09875H37.4868V9.46985H39.3354V9.92981ZM44.9604 10.548C44.9077 10.9991 44.7407 11.3478 44.4595 11.5939C44.1802 11.838 43.8081 11.9601 43.3433 11.9601C42.8394 11.9601 42.4351 11.7794 42.1304 11.4181C41.8276 11.0568 41.6763 10.5734 41.6763 9.9679V9.55774C41.6763 9.16125 41.7466 8.81262 41.8872 8.51184C42.0298 8.21106 42.231 7.98059 42.4907 7.82043C42.7505 7.65833 43.0513 7.57727 43.3931 7.57727C43.8462 7.57727 44.2095 7.70422 44.4829 7.95813C44.7563 8.21008 44.9155 8.55969 44.9604 9.00696H44.395C44.3462 8.66711 44.2397 8.42102 44.0757 8.26868C43.9136 8.11633 43.686 8.04016 43.3931 8.04016C43.0337 8.04016 42.7515 8.17297 42.5464 8.4386C42.3433 8.70422 42.2417 9.08215 42.2417 9.57239V9.98547C42.2417 10.4484 42.3384 10.8165 42.5317 11.09C42.7251 11.3634 42.9956 11.5001 43.3433 11.5001C43.6558 11.5001 43.895 11.4298 44.061 11.2892C44.229 11.1466 44.3403 10.8995 44.395 10.548H44.9604ZM49.0122 9.90637C49.0122 10.3243 48.9419 10.6896 48.8013 11.0021C48.6606 11.3126 48.4614 11.5499 48.2036 11.714C47.9458 11.8781 47.645 11.9601 47.3013 11.9601C46.9653 11.9601 46.6675 11.8781 46.4077 11.714C46.1479 11.548 45.9458 11.3126 45.8013 11.0079C45.6587 10.7013 45.5854 10.3468 45.5815 9.94446V9.63684C45.5815 9.22668 45.6528 8.86438 45.7954 8.54993C45.938 8.23547 46.1392 7.99524 46.3989 7.82922C46.6606 7.66125 46.9595 7.57727 47.2954 7.57727C47.6372 7.57727 47.938 7.66028 48.1978 7.82629C48.4595 7.99036 48.6606 8.22961 48.8013 8.54407C48.9419 8.85657 49.0122 9.22083 49.0122 9.63684V9.90637ZM48.4526 9.63098C48.4526 9.12512 48.3511 8.73743 48.1479 8.4679C47.9448 8.19641 47.6606 8.06067 47.2954 8.06067C46.9399 8.06067 46.6597 8.19641 46.4546 8.4679C46.2515 8.73743 46.147 9.11243 46.1411 9.5929V9.90637C46.1411 10.3966 46.2437 10.7823 46.4487 11.0636C46.6558 11.3429 46.9399 11.4825 47.3013 11.4825C47.6646 11.4825 47.9458 11.3507 48.145 11.087C48.3442 10.8214 48.4468 10.4415 48.4526 9.94739V9.63098ZM53.1343 11.9015H52.5688L50.4214 8.61438V11.9015H49.856V7.63586H50.4214L52.5747 10.9376V7.63586H53.1343V11.9015ZM56.4858 10.0177H54.6958V11.9015H54.1333V7.63586H56.7759V8.09875H54.6958V9.55774H56.4858V10.0177ZM58.0532 11.9015H57.4907V7.63586H58.0532V11.9015ZM62.2339 11.3419C62.0894 11.549 61.8872 11.7042 61.6274 11.8077C61.3696 11.9093 61.0688 11.9601 60.7251 11.9601C60.3774 11.9601 60.0688 11.879 59.7993 11.7169C59.5298 11.5529 59.3208 11.3204 59.1724 11.0197C59.0259 10.7189 58.9507 10.3702 58.9468 9.97375V9.60168C58.9468 8.95911 59.0962 8.46106 59.395 8.10754C59.6958 7.75403 60.1177 7.57727 60.6606 7.57727C61.106 7.57727 61.4644 7.69153 61.7358 7.92004C62.0073 8.14661 62.1733 8.46887 62.2339 8.88684H61.6714C61.5659 8.32239 61.23 8.04016 60.6636 8.04016C60.2866 8.04016 60.0005 8.17297 59.8052 8.4386C59.6118 8.70227 59.5142 9.08508 59.5122 9.58704V9.93567C59.5122 10.4142 59.6216 10.795 59.8403 11.0782C60.0591 11.3595 60.355 11.5001 60.728 11.5001C60.939 11.5001 61.1235 11.4767 61.2817 11.4298C61.4399 11.3829 61.5708 11.3038 61.6743 11.1925V10.2345H60.687V9.77747H62.2339V11.3419ZM66.1772 7.63586V10.5363C66.1753 10.9386 66.0483 11.2677 65.7964 11.5236C65.5464 11.7794 65.2065 11.923 64.7769 11.9542L64.6274 11.9601C64.1606 11.9601 63.7886 11.8341 63.5112 11.5822C63.2339 11.3302 63.0933 10.9835 63.0894 10.5421V7.63586H63.646V10.5245C63.646 10.8331 63.731 11.0734 63.9009 11.2452C64.0708 11.4152 64.313 11.5001 64.6274 11.5001C64.9458 11.5001 65.189 11.4152 65.3569 11.2452C65.5269 11.0753 65.6118 10.8361 65.6118 10.5275V7.63586H66.1772ZM68.6294 10.1759H67.6274V11.9015H67.062V7.63586H68.4741C68.9546 7.63586 69.3237 7.74524 69.5815 7.96399C69.8413 8.18274 69.9712 8.5011 69.9712 8.91907C69.9712 9.18469 69.8989 9.41614 69.7544 9.6134C69.6118 9.81067 69.4126 9.95813 69.1567 10.0558L70.1587 11.8663V11.9015H69.5552L68.6294 10.1759ZM67.6274 9.71594H68.4917C68.771 9.71594 68.9927 9.64368 69.1567 9.49915C69.3228 9.35461 69.4058 9.16125 69.4058 8.91907C69.4058 8.6554 69.3267 8.45325 69.1685 8.31262C69.0122 8.172 68.7856 8.10071 68.4888 8.09875H67.6274V9.71594ZM73.1177 10.7882H71.3306L70.9292 11.9015H70.3491L71.978 7.63586H72.4702L74.1021 11.9015H73.5249L73.1177 10.7882ZM71.5005 10.3253H72.9507L72.2241 8.3302L71.5005 10.3253ZM77.2427 8.09875H75.8716V11.9015H75.312V8.09875H73.9438V7.63586H77.2427V8.09875ZM78.479 11.9015H77.9165V7.63586H78.479V11.9015ZM82.7915 9.90637C82.7915 10.3243 82.7212 10.6896 82.5806 11.0021C82.4399 11.3126 82.2407 11.5499 81.9829 11.714C81.7251 11.8781 81.4243 11.9601 81.0806 11.9601C80.7446 11.9601 80.4468 11.8781 80.187 11.714C79.9272 11.548 79.7251 11.3126 79.5806 11.0079C79.438 10.7013 79.3647 10.3468 79.3608 9.94446V9.63684C79.3608 9.22668 79.4321 8.86438 79.5747 8.54993C79.7173 8.23547 79.9185 7.99524 80.1782 7.82922C80.4399 7.66125 80.7388 7.57727 81.0747 7.57727C81.4165 7.57727 81.7173 7.66028 81.9771 7.82629C82.2388 7.99036 82.4399 8.22961 82.5806 8.54407C82.7212 8.85657 82.7915 9.22083 82.7915 9.63684V9.90637ZM82.2319 9.63098C82.2319 9.12512 82.1304 8.73743 81.9272 8.4679C81.7241 8.19641 81.4399 8.06067 81.0747 8.06067C80.7192 8.06067 80.439 8.19641 80.2339 8.4679C80.0308 8.73743 79.9263 9.11243 79.9204 9.5929V9.90637C79.9204 10.3966 80.0229 10.7823 80.228 11.0636C80.4351 11.3429 80.7192 11.4825 81.0806 11.4825C81.4438 11.4825 81.7251 11.3507 81.9243 11.087C82.1235 10.8214 82.2261 10.4415 82.2319 9.94739V9.63098ZM86.9136 11.9015H86.3481L84.2007 8.61438V11.9015H83.6353V7.63586H84.2007L86.354 10.9376V7.63586H86.9136V11.9015Z" fill="#9DB4BF"/>
<path d="M10.8448 5.73694C8.58541 5.73694 6.73682 7.58553 6.73682 9.84492C6.73682 12.1043 8.58541 13.9529 10.8448 13.9529C13.1042 13.9529 14.9528 12.1043 14.9528 9.84492C14.9528 7.58553 13.1042 5.73694 10.8448 5.73694ZM10.434 13.1067C8.81956 12.9013 7.55841 11.5128 7.55841 9.84492C7.55841 8.17708 8.81956 6.78858 10.434 6.58729V13.1067V13.1067ZM11.2556 13.1025V10.2557H14.1024C13.9176 11.7387 12.7386 12.9177 11.2556 13.1025ZM11.2556 9.43412V6.58729C12.7386 6.77215 13.9176 7.95525 14.1024 9.43412H11.2556Z" fill="#9DB4BF"/>
<path opacity="0.16" d="M97.2113 46.6056C97.2113 61.8518 84.8518 74.2113 69.6056 74.2113C54.3595 74.2113 42 61.8518 42 46.6056C42 31.3595 54.3595 19 69.6056 19C84.8518 19 97.2113 31.3595 97.2113 46.6056ZM49.7932 46.6056C49.7932 57.5477 58.6636 66.418 69.6056 66.418C80.5477 66.418 89.418 57.5477 89.418 46.6056C89.418 35.6636 80.5477 26.7932 69.6056 26.7932C58.6636 26.7932 49.7932 35.6636 49.7932 46.6056Z" fill="#9DB4BF"/>
<path opacity="0.7" d="M49.5232 59.2078C47.7004 60.3516 47.1306 62.7789 48.5195 64.4227C50.8709 67.2055 53.7586 69.5055 57.0243 71.1776C61.4508 73.444 66.4072 74.4727 71.37 74.1548C76.3327 73.837 81.1174 72.1845 85.2186 69.372C89.3198 66.5594 92.585 62.6913 94.6694 58.1763C96.7537 53.6613 97.5798 48.6671 97.0602 43.7214C96.5406 38.7757 94.6947 34.0622 91.7176 30.0789C88.7404 26.0956 84.7426 22.9905 80.1465 21.0917C76.7556 19.6908 73.132 18.9848 69.4888 19.0002C67.3368 19.0093 65.859 21.0174 66.1708 23.1468V23.1468C66.4825 25.2761 68.4722 26.709 70.6214 26.8193C72.8631 26.9344 75.0787 27.4301 77.1707 28.2944C80.4693 29.6572 83.3386 31.8857 85.4752 34.7445C87.6119 37.6033 88.9367 40.9861 89.3096 44.5356C89.6825 48.0851 89.0896 51.6694 87.5937 54.9098C86.0978 58.1502 83.7543 60.9264 80.811 62.9449C77.8676 64.9634 74.4336 66.1494 70.8719 66.3775C67.3101 66.6056 63.7529 65.8674 60.5761 64.2408C58.5613 63.2092 56.7469 61.8445 55.2052 60.2129C53.7272 58.6488 51.3461 58.0639 49.5232 59.2078V59.2078Z" fill="#9DB4BF"/>
<circle cx="50.8736" cy="60.9014" r="6.90141" fill="#9DB4BF"/>
<line x1="48.9031" y1="58.9295" x2="52.8468" y2="58.9295" stroke="#272D33" stroke-width="0.985916" stroke-linecap="round"/>
<line x1="48.9026" y1="60.9015" x2="52.8463" y2="60.9015" stroke="#272D33" stroke-width="0.985916" stroke-linecap="round"/>
<line x1="48.9026" y1="62.8733" x2="52.8463" y2="62.8733" stroke="#272D33" stroke-width="0.985916" stroke-linecap="round"/>
<path d="M64.918 49.676H63.753V44.0484L62.0343 44.6357V43.6488L64.7687 42.6427H64.918V49.676ZM72.0668 49.676H67.3539V48.8721L69.6887 46.3255C70.0257 45.95 70.2647 45.637 70.406 45.3867C70.5504 45.1332 70.6226 44.8796 70.6226 44.6261C70.6226 44.2923 70.5279 44.0227 70.3386 43.8173C70.1524 43.6119 69.9005 43.5092 69.5828 43.5092C69.2041 43.5092 68.9104 43.6248 68.7018 43.8559C68.4932 44.0869 68.3889 44.403 68.3889 44.8042H67.2191C67.2191 44.3774 67.3153 43.9939 67.5079 43.6537C67.7037 43.3103 67.9813 43.0439 68.3407 42.8545C68.7034 42.6652 69.1206 42.5705 69.5924 42.5705C70.2728 42.5705 70.8087 42.7422 71.2003 43.0856C71.595 43.4258 71.7924 43.8976 71.7924 44.5009C71.7924 44.8508 71.6929 45.2182 71.4939 45.6033C71.2982 45.9853 70.9756 46.4201 70.5263 46.908L68.8125 48.7421H72.0668V49.676ZM77.3719 44.5154C77.3719 44.8588 77.2836 45.1653 77.1071 45.4349C76.9306 45.7012 76.6899 45.9114 76.385 46.0655C76.7509 46.2356 77.0317 46.4683 77.2275 46.7635C77.4264 47.0588 77.5259 47.3926 77.5259 47.7649C77.5259 48.381 77.3173 48.8705 76.9001 49.2331C76.4829 49.5926 75.9277 49.7723 75.2344 49.7723C74.538 49.7723 73.9796 49.591 73.5592 49.2283C73.1419 48.8657 72.9333 48.3778 72.9333 47.7649C72.9333 47.3894 73.0328 47.0524 73.2318 46.7539C73.4308 46.4554 73.71 46.226 74.0694 46.0655C73.7678 45.9114 73.5287 45.7012 73.3522 45.4349C73.1788 45.1653 73.0922 44.8588 73.0922 44.5154C73.0922 43.9184 73.2848 43.4451 73.6699 43.0952C74.055 42.7454 74.5749 42.5705 75.2296 42.5705C75.8875 42.5705 76.4091 42.7454 76.7942 43.0952C77.1793 43.4451 77.3719 43.9184 77.3719 44.5154ZM76.3561 47.7071C76.3561 47.3605 76.2518 47.0813 76.0432 46.8694C75.8378 46.6544 75.565 46.5469 75.2248 46.5469C74.8846 46.5469 74.6118 46.6528 74.4064 46.8646C74.2042 47.0764 74.1031 47.3573 74.1031 47.7071C74.1031 48.0505 74.2026 48.3249 74.4016 48.5303C74.6038 48.7357 74.8814 48.8384 75.2344 48.8384C75.5875 48.8384 75.8619 48.7389 76.0576 48.5399C76.2566 48.3409 76.3561 48.0633 76.3561 47.7071ZM76.2069 44.5587C76.2069 44.2538 76.1186 44.0035 75.9421 43.8077C75.7656 43.6087 75.5281 43.5092 75.2296 43.5092C74.9312 43.5092 74.6953 43.6039 74.522 43.7933C74.3487 43.9794 74.262 44.2346 74.262 44.5587C74.262 44.8796 74.3487 45.1348 74.522 45.3241C74.6985 45.5135 74.936 45.6082 75.2344 45.6082C75.5329 45.6082 75.7688 45.5135 75.9421 45.3241C76.1186 45.1348 76.2069 44.8796 76.2069 44.5587Z" fill="#9DB4BF"/>
</svg>
